<mxfile host="app.diagrams.net" agent="Mozilla/5.0 (Macintosh; Intel Mac OS X 10_15_7) AppleWebKit/537.36 (KHTML, like Gecko) Chrome/130.0.0.0 Safari/537.36" version="24.8.4">
  <diagram name="Page-1" id="9AiTrp-WcwphuC5QowBp">
    <mxGraphModel dx="3056" dy="1040" grid="1" gridSize="10" guides="1" tooltips="1" connect="1" arrows="1" fold="1" page="1" pageScale="1" pageWidth="850" pageHeight="1100" math="0" shadow="0">
      <root>
        <mxCell id="0" />
        <mxCell id="1" parent="0" />
        <mxCell id="ZyHk9CAjqQw3b3uhWXVp-40" value="" style="rounded=0;whiteSpace=wrap;html=1;fillColor=#1b1e6b;strokeColor=#10739e;fillStyle=solid;gradientColor=#CCE5FF;fontColor=#050973;" vertex="1" parent="1">
          <mxGeometry x="-130" y="10" width="1610" height="880" as="geometry" />
        </mxCell>
        <mxCell id="ZyHk9CAjqQw3b3uhWXVp-2" style="edgeStyle=orthogonalEdgeStyle;rounded=0;orthogonalLoop=1;jettySize=auto;html=1;strokeWidth=4;" edge="1" parent="1" source="ZyHk9CAjqQw3b3uhWXVp-1">
          <mxGeometry relative="1" as="geometry">
            <mxPoint x="230" y="390" as="targetPoint" />
          </mxGeometry>
        </mxCell>
        <mxCell id="ZyHk9CAjqQw3b3uhWXVp-4" style="edgeStyle=orthogonalEdgeStyle;rounded=0;orthogonalLoop=1;jettySize=auto;html=1;entryX=0.5;entryY=1;entryDx=0;entryDy=0;strokeWidth=4;" edge="1" parent="1" source="ZyHk9CAjqQw3b3uhWXVp-1" target="ZyHk9CAjqQw3b3uhWXVp-3">
          <mxGeometry relative="1" as="geometry">
            <Array as="points">
              <mxPoint x="80" y="500" />
              <mxPoint x="290" y="500" />
            </Array>
          </mxGeometry>
        </mxCell>
        <mxCell id="ZyHk9CAjqQw3b3uhWXVp-5" value="OTP" style="edgeLabel;html=1;align=center;verticalAlign=middle;resizable=0;points=[];labelBackgroundColor=none;" vertex="1" connectable="0" parent="ZyHk9CAjqQw3b3uhWXVp-4">
          <mxGeometry x="-0.0357" y="1" relative="1" as="geometry">
            <mxPoint x="15" y="11" as="offset" />
          </mxGeometry>
        </mxCell>
        <mxCell id="ZyHk9CAjqQw3b3uhWXVp-1" value="Login O Auth" style="rounded=1;whiteSpace=wrap;html=1;fillColor=#CCE5FF;strokeColor=#FFFFFF;fontColor=#000000;" vertex="1" parent="1">
          <mxGeometry x="20" y="360" width="120" height="60" as="geometry" />
        </mxCell>
        <mxCell id="ZyHk9CAjqQw3b3uhWXVp-8" style="edgeStyle=orthogonalEdgeStyle;rounded=0;orthogonalLoop=1;jettySize=auto;html=1;strokeWidth=4;" edge="1" parent="1" source="ZyHk9CAjqQw3b3uhWXVp-3" target="ZyHk9CAjqQw3b3uhWXVp-6">
          <mxGeometry relative="1" as="geometry" />
        </mxCell>
        <mxCell id="ZyHk9CAjqQw3b3uhWXVp-9" style="edgeStyle=orthogonalEdgeStyle;rounded=0;orthogonalLoop=1;jettySize=auto;html=1;entryX=0;entryY=0.5;entryDx=0;entryDy=0;strokeWidth=4;" edge="1" parent="1" source="ZyHk9CAjqQw3b3uhWXVp-3" target="ZyHk9CAjqQw3b3uhWXVp-7">
          <mxGeometry relative="1" as="geometry" />
        </mxCell>
        <mxCell id="ZyHk9CAjqQw3b3uhWXVp-3" value="Magic HSM" style="whiteSpace=wrap;html=1;aspect=fixed;fillColor=#CCE5FF;strokeColor=#FFFFFF;fontColor=#000000;" vertex="1" parent="1">
          <mxGeometry x="230" y="330" width="120" height="120" as="geometry" />
        </mxCell>
        <mxCell id="ZyHk9CAjqQw3b3uhWXVp-11" style="edgeStyle=orthogonalEdgeStyle;rounded=0;orthogonalLoop=1;jettySize=auto;html=1;strokeWidth=4;" edge="1" parent="1" source="ZyHk9CAjqQw3b3uhWXVp-6" target="ZyHk9CAjqQw3b3uhWXVp-10">
          <mxGeometry relative="1" as="geometry" />
        </mxCell>
        <mxCell id="ZyHk9CAjqQw3b3uhWXVp-6" value="EVM Provider" style="rounded=0;whiteSpace=wrap;html=1;fillColor=#CCE5FF;strokeColor=#FFFFFF;fontColor=#000000;" vertex="1" parent="1">
          <mxGeometry x="390" y="330" width="120" height="50" as="geometry" />
        </mxCell>
        <mxCell id="ZyHk9CAjqQw3b3uhWXVp-12" style="edgeStyle=orthogonalEdgeStyle;rounded=0;orthogonalLoop=1;jettySize=auto;html=1;strokeWidth=4;" edge="1" parent="1" source="ZyHk9CAjqQw3b3uhWXVp-7" target="ZyHk9CAjqQw3b3uhWXVp-10">
          <mxGeometry relative="1" as="geometry" />
        </mxCell>
        <mxCell id="ZyHk9CAjqQw3b3uhWXVp-7" value="Solana Provider" style="rounded=0;whiteSpace=wrap;html=1;fillColor=#CCE5FF;strokeColor=#FFFFFF;fontColor=#000000;" vertex="1" parent="1">
          <mxGeometry x="390" y="400" width="120" height="50" as="geometry" />
        </mxCell>
        <mxCell id="ZyHk9CAjqQw3b3uhWXVp-14" value="" style="edgeStyle=orthogonalEdgeStyle;rounded=0;orthogonalLoop=1;jettySize=auto;html=1;entryX=0;entryY=0.5;entryDx=0;entryDy=0;strokeWidth=4;" edge="1" parent="1" target="ZyHk9CAjqQw3b3uhWXVp-13">
          <mxGeometry relative="1" as="geometry">
            <mxPoint x="653.5" y="390" as="sourcePoint" />
            <mxPoint x="983" y="340" as="targetPoint" />
          </mxGeometry>
        </mxCell>
        <mxCell id="ZyHk9CAjqQw3b3uhWXVp-15" value="Evm Address" style="edgeLabel;html=1;align=center;verticalAlign=middle;resizable=0;points=[];labelBackgroundColor=none;" vertex="1" connectable="0" parent="ZyHk9CAjqQw3b3uhWXVp-14">
          <mxGeometry x="-0.2315" y="1" relative="1" as="geometry">
            <mxPoint x="31" y="-9" as="offset" />
          </mxGeometry>
        </mxCell>
        <mxCell id="ZyHk9CAjqQw3b3uhWXVp-10" value="Kresus Core SDK" style="outlineConnect=0;dashed=0;verticalLabelPosition=bottom;verticalAlign=top;align=center;html=1;shape=mxgraph.aws3.android;fillColor=#4090D7;gradientColor=none;" vertex="1" parent="1">
          <mxGeometry x="620" y="348" width="73.5" height="84" as="geometry" />
        </mxCell>
        <mxCell id="ZyHk9CAjqQw3b3uhWXVp-19" value="" style="edgeStyle=orthogonalEdgeStyle;rounded=0;orthogonalLoop=1;jettySize=auto;html=1;strokeWidth=4;" edge="1" parent="1" source="ZyHk9CAjqQw3b3uhWXVp-13" target="ZyHk9CAjqQw3b3uhWXVp-18">
          <mxGeometry relative="1" as="geometry" />
        </mxCell>
        <mxCell id="ZyHk9CAjqQw3b3uhWXVp-35" style="edgeStyle=orthogonalEdgeStyle;rounded=0;orthogonalLoop=1;jettySize=auto;html=1;strokeWidth=4;" edge="1" parent="1" source="ZyHk9CAjqQw3b3uhWXVp-13">
          <mxGeometry relative="1" as="geometry">
            <mxPoint x="946.5000000000005" y="280" as="targetPoint" />
          </mxGeometry>
        </mxCell>
        <mxCell id="ZyHk9CAjqQw3b3uhWXVp-13" value="Abstraction Factory" style="rounded=0;whiteSpace=wrap;html=1;fillColor=#CCE5FF;strokeColor=#FFFFFF;fontColor=#000000;" vertex="1" parent="1">
          <mxGeometry x="850" y="360" width="193" height="60" as="geometry" />
        </mxCell>
        <mxCell id="ZyHk9CAjqQw3b3uhWXVp-17" value="" style="edgeStyle=orthogonalEdgeStyle;rounded=0;orthogonalLoop=1;jettySize=auto;html=1;strokeWidth=4;" edge="1" parent="1" source="ZyHk9CAjqQw3b3uhWXVp-16" target="ZyHk9CAjqQw3b3uhWXVp-13">
          <mxGeometry relative="1" as="geometry" />
        </mxCell>
        <mxCell id="ZyHk9CAjqQw3b3uhWXVp-21" value="" style="edgeStyle=orthogonalEdgeStyle;rounded=0;orthogonalLoop=1;jettySize=auto;html=1;strokeWidth=4;" edge="1" parent="1" source="ZyHk9CAjqQw3b3uhWXVp-16" target="ZyHk9CAjqQw3b3uhWXVp-20">
          <mxGeometry relative="1" as="geometry" />
        </mxCell>
        <mxCell id="ZyHk9CAjqQw3b3uhWXVp-39" style="edgeStyle=orthogonalEdgeStyle;rounded=0;orthogonalLoop=1;jettySize=auto;html=1;strokeWidth=4;" edge="1" parent="1" source="ZyHk9CAjqQw3b3uhWXVp-16" target="ZyHk9CAjqQw3b3uhWXVp-37">
          <mxGeometry relative="1" as="geometry" />
        </mxCell>
        <mxCell id="ZyHk9CAjqQw3b3uhWXVp-16" value="4337 Account Abstraction" style="rounded=0;whiteSpace=wrap;html=1;fillColor=#CCE5FF;strokeColor=#FFFFFF;fontColor=#000000;" vertex="1" parent="1">
          <mxGeometry x="850" y="490" width="193" height="60" as="geometry" />
        </mxCell>
        <mxCell id="ZyHk9CAjqQw3b3uhWXVp-18" value="Kresus Wallet" style="whiteSpace=wrap;html=1;rounded=0;fillColor=#CCE5FF;strokeColor=#FFFFFF;fontColor=#000000;" vertex="1" parent="1">
          <mxGeometry x="1159.5" y="360" width="120" height="60" as="geometry" />
        </mxCell>
        <mxCell id="ZyHk9CAjqQw3b3uhWXVp-22" value="" style="edgeStyle=orthogonalEdgeStyle;rounded=0;orthogonalLoop=1;jettySize=auto;html=1;strokeWidth=4;" edge="1" parent="1" source="ZyHk9CAjqQw3b3uhWXVp-20" target="ZyHk9CAjqQw3b3uhWXVp-18">
          <mxGeometry relative="1" as="geometry" />
        </mxCell>
        <mxCell id="ZyHk9CAjqQw3b3uhWXVp-20" value="Implementation&lt;br&gt;Proxy" style="whiteSpace=wrap;html=1;rounded=0;fillColor=#CCE5FF;strokeColor=#FFFFFF;fontColor=#000000;" vertex="1" parent="1">
          <mxGeometry x="1159.5" y="490" width="120" height="60" as="geometry" />
        </mxCell>
        <mxCell id="ZyHk9CAjqQw3b3uhWXVp-24" style="edgeStyle=orthogonalEdgeStyle;rounded=0;orthogonalLoop=1;jettySize=auto;html=1;entryX=0.5;entryY=0;entryDx=0;entryDy=0;strokeWidth=4;" edge="1" parent="1" source="ZyHk9CAjqQw3b3uhWXVp-23" target="ZyHk9CAjqQw3b3uhWXVp-18">
          <mxGeometry relative="1" as="geometry" />
        </mxCell>
        <mxCell id="ZyHk9CAjqQw3b3uhWXVp-23" value="Unstoppable Domain" style="rounded=1;whiteSpace=wrap;html=1;fillColor=#CCE5FF;strokeColor=#FFFFFF;fontColor=#000000;" vertex="1" parent="1">
          <mxGeometry x="1139.38" y="170" width="160.25" height="60" as="geometry" />
        </mxCell>
        <mxCell id="ZyHk9CAjqQw3b3uhWXVp-25" value="Solana/Web3 JS" style="rounded=1;whiteSpace=wrap;html=1;fillColor=#CCE5FF;strokeColor=#6c8ebf;" vertex="1" parent="1">
          <mxGeometry x="575.25" y="120" width="163" height="30" as="geometry" />
        </mxCell>
        <mxCell id="ZyHk9CAjqQw3b3uhWXVp-26" value="Ethers JS" style="rounded=1;whiteSpace=wrap;html=1;fillColor=#CCE5FF;strokeColor=#FFFFFF;fontColor=#000000;" vertex="1" parent="1">
          <mxGeometry x="575.25" y="170" width="163" height="30" as="geometry" />
        </mxCell>
        <mxCell id="ZyHk9CAjqQw3b3uhWXVp-32" style="edgeStyle=orthogonalEdgeStyle;rounded=0;orthogonalLoop=1;jettySize=auto;html=1;strokeWidth=4;" edge="1" parent="1" source="ZyHk9CAjqQw3b3uhWXVp-27">
          <mxGeometry relative="1" as="geometry">
            <mxPoint x="656.75" y="340" as="targetPoint" />
          </mxGeometry>
        </mxCell>
        <mxCell id="ZyHk9CAjqQw3b3uhWXVp-34" style="edgeStyle=orthogonalEdgeStyle;rounded=0;orthogonalLoop=1;jettySize=auto;html=1;strokeWidth=4;" edge="1" parent="1" source="ZyHk9CAjqQw3b3uhWXVp-27">
          <mxGeometry relative="1" as="geometry">
            <mxPoint x="920" y="235" as="targetPoint" />
          </mxGeometry>
        </mxCell>
        <mxCell id="ZyHk9CAjqQw3b3uhWXVp-27" value="Wallet APIs" style="rounded=1;whiteSpace=wrap;html=1;fillColor=#CCE5FF;strokeColor=#FFFFFF;fontColor=#000000;" vertex="1" parent="1">
          <mxGeometry x="575.25" y="220" width="163" height="30" as="geometry" />
        </mxCell>
        <mxCell id="ZyHk9CAjqQw3b3uhWXVp-31" style="edgeStyle=orthogonalEdgeStyle;rounded=0;orthogonalLoop=1;jettySize=auto;html=1;strokeWidth=4;" edge="1" parent="1" source="ZyHk9CAjqQw3b3uhWXVp-28">
          <mxGeometry relative="1" as="geometry">
            <mxPoint x="656.75" y="460" as="targetPoint" />
          </mxGeometry>
        </mxCell>
        <mxCell id="ZyHk9CAjqQw3b3uhWXVp-28" value="Onramp" style="rounded=1;whiteSpace=wrap;html=1;fillColor=#CCE5FF;strokeColor=#FFFFFF;fontColor=#000000;" vertex="1" parent="1">
          <mxGeometry x="575.25" y="550" width="163" height="30" as="geometry" />
        </mxCell>
        <mxCell id="ZyHk9CAjqQw3b3uhWXVp-29" value="Offramp" style="rounded=1;whiteSpace=wrap;html=1;fillColor=#CCE5FF;strokeColor=#FFFFFF;fontColor=#000000;" vertex="1" parent="1">
          <mxGeometry x="575.25" y="600" width="163" height="30" as="geometry" />
        </mxCell>
        <mxCell id="ZyHk9CAjqQw3b3uhWXVp-30" value="Uniswap &amp;amp; Jupyter" style="rounded=1;whiteSpace=wrap;html=1;fillColor=#CCE5FF;strokeColor=#FFFFFF;fontColor=#000000;" vertex="1" parent="1">
          <mxGeometry x="575.25" y="650" width="163" height="30" as="geometry" />
        </mxCell>
        <mxCell id="ZyHk9CAjqQw3b3uhWXVp-33" value="Moralis Transaction Webhook" style="aspect=fixed;sketch=0;html=1;dashed=0;whitespace=wrap;verticalLabelPosition=bottom;verticalAlign=top;fillColor=#2875E2;strokeColor=#ffffff;points=[[0.005,0.63,0],[0.1,0.2,0],[0.9,0.2,0],[0.5,0,0],[0.995,0.63,0],[0.72,0.99,0],[0.5,1,0],[0.28,0.99,0]];shape=mxgraph.kubernetes.icon2;prIcon=sched" vertex="1" parent="1">
          <mxGeometry x="922" y="211" width="50" height="48" as="geometry" />
        </mxCell>
        <mxCell id="ZyHk9CAjqQw3b3uhWXVp-38" style="edgeStyle=orthogonalEdgeStyle;rounded=0;orthogonalLoop=1;jettySize=auto;html=1;strokeWidth=4;" edge="1" parent="1" source="ZyHk9CAjqQw3b3uhWXVp-36" target="ZyHk9CAjqQw3b3uhWXVp-37">
          <mxGeometry relative="1" as="geometry" />
        </mxCell>
        <mxCell id="ZyHk9CAjqQw3b3uhWXVp-36" value="PWA" style="rounded=1;whiteSpace=wrap;html=1;fillColor=#CCE5FF;strokeColor=#FFFFFF;fontColor=#000000;" vertex="1" parent="1">
          <mxGeometry x="575.25" y="700" width="163" height="30" as="geometry" />
        </mxCell>
        <mxCell id="ZyHk9CAjqQw3b3uhWXVp-37" value="Third Party Dapps" style="image;aspect=fixed;html=1;points=[];align=center;fontSize=12;image=img/lib/azure2/intune/Client_Apps.svg;labelBackgroundColor=none;" vertex="1" parent="1">
          <mxGeometry x="912.5" y="681" width="68" height="68" as="geometry" />
        </mxCell>
        <mxCell id="ZyHk9CAjqQw3b3uhWXVp-42" value="" style="shape=image;verticalLabelPosition=bottom;labelBackgroundColor=default;verticalAlign=top;aspect=fixed;imageAspect=0;image=data:image/png,iVBORw0KGgoAAAANSUhEUgAAAFUAAABVCAYAAAA49ahaAAAAAXNSR0IArs4c6QAAAERlWElmTU0AKgAAAAgAAYdpAAQAAAABAAAAGgAAAAAAA6ABAAMAAAABAAEAAKACAAQAAAABAAAAVaADAAQAAAABAAAAVQAAAAANri+zAAAIXUlEQVR4Ae1db2wURRSfuWtNoSYcxC9AQhvgkwJHIhhIbCsBiSbQIyEREkn9QyIqplHAP4FYSg1EiUFoROWDxiIkQGJCCwkGbbQtQRMwaRH8BHglEb7BqaiNLV3nt+27zO3tze3u3ezt0X1JOzt/3uzMb968efNmNseZhSoe3PYEMyKJUcNYw5lRa8kOo+MIGJz3c8b6Kyuju4ZS7ydlYET6GMVirbE/h+/u5AZ7ndLC0BkCnEf2j1RO3sVSrSlwmKAC0LvDf39vGMZCZ9WEpawIQHJHK6uXAdgIMiGhIaBWmNzFuRDIiuF/doKLV1W9UzscGfnNXRVh6VwI8AhbFhmO3DPRzVUoTHeJgMHXRDgP9ahL2JTFDYMlIuJfuDgpYXKbadSaC5VbtrC8GoEQVDU+nnJDUD3BpmYKQVXj4yk3BNUTbGqmEFQ1Pp5yQ1A9waZmCkFV4+MpNwTVE2xqpgp1drByE6seYQ31c1hsSpXZsAMHz7GBSzeVjYzFqlhi1TwWXzDD5EsO3mHtgi/1x79KvkIyywJUANN95hUTGLmzPX3XlaDW1kxl3wk+hDL1nLvGenqvy0lFfS6L6d/07OIsQIFC8sZtJRgt21dmAQqGQSGtOqksQMW0t6N84DSuzubDQEAF6KSyALWmZloWBoePXFSCE5sySejQSbZ8WYlFTgiMTm3eXCcWodksPn+m2cWu05fZlre6bLvbeeoK2/J2p20eJUIPW6n9YB9r2/2tNbno8UCAum9vIwOoMmG1Jnpvz1lWM2sqG7xxh/X0XVNKKPFgirftPmtGwdcpBimVGqJsrSGPTt5maH1Dnsob6uaw7m9ezip1+MgF9uKmE1np5ZBQcp3aUDfbFieYS+VKvk5/shdheKumIlboDrEQlSv5AmrLjidZ86v1TF48HprRkrWrAdgwyrfmWYSCDrZ2nWq3CAGUiuo3TWwgvTWzppkADwoJVUmwCkyaBXZl8s0MO55C0rRLatOGRVntk/fdWKWdGuPxBdNZQ91ctlCE8QUz2RRhh6rAlF8ME6z943NykrZnraCOOTGyDfAuYWc6JSxkz4mBaVw1P0N9OOWncnCq3Beg2u1osAi1CbtTRdC9sFuteljFE6Q8rZJq6shxFxt0JbaW7Z/05tSbucCEugBvKpXfXQfXIGxfIqiW3r6rwvmid79P70OofaGSX6Z6trMQUB5by1zbVWt90K8Xz28x1QRmxMaXTpg7MGs53XGtkuqk8dCZnx9ab7vgABg3gMJ3Smbbiqc+c7wAOmmnmzIlAxVgtuxYmTFVrQ0//JXzDcDXx55PD0w+D5b1PcWO+w4qJAnOY6sDxa5jzZvrWdOGxemsuQ/vST/LD7CFZQdMclDtvJZ5dTz7Cip0HiRKBkDVKQwATedc5ewGKBbLNuNy8etI982hAnCg8whQrOgDv/zuuU+oDxKKBc5KdhsOaxmdcd9A3fdBIq3zAOaipR+xgYFbrvoGJzY2AgDz6pUdOVUI7GOUA2EQr/663da96OrlLgr7YlJh2qNjIKzoABQefjs/qou2K4vCPiUd3H1G+GvFdzjLhUXgB/kiqdB7RBs3HTeNf5IkSi92iIFsfu1xs9q2PfqPUOT2+wIq6VFIKZ2310u7HmoQTKHOU5cpWnCIwYQqwBEMNhF+kS+rf42QGhDdJkFHIUlEWLTWrusQZ1C302qC8tyEPb3XxOJ3M2M7iwUN9eOw0C/yBVRyrAwMjF3RsZpJOOGENH1xaJ2nfpunpMJJ49UX6+mlCiZfQKX341QTBKc0EVQCTU27yw8oB0mjgSE+CqGjnRy9mBLr02mqLzqVALALe8fvNEHvWoHDlF3+9KdKCXxX6E1IeMLmNgqAhB0LKwObDr+o5KDiPB5UK0kv4li01q7/0ryxJ+tf5MmEPBj7AK1589hqT/nwWGGxkl2BlKczLDmomNoguh6JZ6gEcmS72R1ZJV01GHiPLvJVpzrtBFQCjHdImAwUBgASTFYEzqjg7UIZM+9oplcLbkPYqtZZ4LQdXssFEtSOoxfM/pB9iwhAw46IAKUO0yJHcTlEHv5oRyXn6XwOJKjkE6gV96eItgqpI0ABNqSYjmtwpVJ1Irt2fYdwhD9DVWkPAwlqWs9KLjzYsSDoyZ9/fMMRMNDLsIFRX9dp/4x/XxaqQq8vQkJJEmU/Qj5kaZuKcjQo+XiKke+LpEJiMFWxqnshklzw4kqlTGbdYvrL1ChuXidWzzOT4vHppr9BrkMuq+PZF1DRcCe7Hi8dxPcAK8QGgSQZdUAqCVSq088trC/TnzpGYTGlBjrW7gsUelcpwpKACh1p+lXHDX8vHYc0kjohYGWb1kudxeIpCahoPNQBTgC8TstBcWK6aMn+tP8VwDZteLRYuBRUT8lARauhB8n29NILqJGN0hX2CS+pVhBx18mLrvXCY313seMllVS5M9CRUAekJ+W8cnsODKgADuoAejIo09jrYPpmpzptYBCns9O2U7lASSo1ikLslspRHQQaVFIHfp6E0oAWEgYaVHQM6kDlMy2k87p4A6dT83W0U7jw4JyRvwjEJ5cgnPmDxq7CX2D9l25p/7bffKHlny93qSzvvO+jgZ/+5TgCIagaRi0ENQRVAwIaqgwlNQRVAwIaqgwlNQRVAwIaqgwlVQ+oPKmh3glbJWe8X/x4wmjnhEVAQ8cNzvojjPOTGuqesFXeE79PFR3973wy+sBScZeGL5mwSBSp45zzA6N/7T1mLlQjlfdaIbZFqntCViMA7R+prG5F56MmAkM/DRnVjx2PjnLx+XEosSYmLv5BQgWgL2T8cloGv/h9qmhkpJVzFg9/rCYDGUuEJwVGnYwbJ0fufviDnPk/pD8Eh1WdYq8AAAAASUVORK5CYII=;" vertex="1" parent="1">
          <mxGeometry x="30" y="630" width="150" height="150" as="geometry" />
        </mxCell>
        <mxCell id="ZyHk9CAjqQw3b3uhWXVp-43" value="&lt;h1 style=&quot;margin-top: 0px;&quot;&gt;&lt;font color=&quot;#ffffff&quot;&gt;&lt;span style=&quot;background-color: initial;&quot;&gt;&lt;font style=&quot;font-size: 33px;&quot;&gt;Kresus Wallet&lt;/font&gt;&lt;br&gt;&lt;/span&gt;&lt;span style=&quot;font-size: 12px; font-weight: 400;&quot;&gt;The Kresus wallet solution is a comprehensive crypto wallet platform with a clear roadmap for development. It prioritizes security by implementing AWS conginto for authentication and AWS KMS for private key handling. The solution aims to support a wide range.&lt;/span&gt;&lt;/font&gt;&lt;/h1&gt;" style="text;html=1;whiteSpace=wrap;overflow=hidden;rounded=0;" vertex="1" parent="1">
          <mxGeometry x="30" y="60" width="480" height="170" as="geometry" />
        </mxCell>
      </root>
    </mxGraphModel>
  </diagram>
</mxfile>
